# xmcd
#
# Track frame offsets: 
#        150
#        11127
#        29907
#        48683
#        67697
#        87244
#        106997
#        121487
#        133995
#        154861
#
# Disc length: 2275 seconds
#
# Revision: 0
# Processed by: cddbd v1.5.2PL0 Copyright (c) Steve Scherf et al.
# Submitted via: ExactAudioCopy v1.3
#
DISCID=8c08e10a
DTITLE=The Missing Part - The Missing Part
DYEAR=2017
DGENRE=Blues
TTITLE0=Cigarette
TTITLE1=When The Summer's Gone
TTITLE2=Gdzieś Obok
TTITLE3=Wicked Game
TTITLE4=Za Cicho
TTITLE5=Run Away
TTITLE6=Another Lesson From Faith
TTITLE7=Rade Sobie Dam
TTITLE8=Angel From Montgomery
TTITLE9=Milość Ci Wszystko Wybaczy
EXTD=
EXTT0=
EXTT1=
EXTT2=
EXTT3=
EXTT4=
EXTT5=
EXTT6=
EXTT7=
EXTT8=
EXTT9=
PLAYORDER=
